<?xml version="1.0"?>
<svg xmlns="http://www.w3.org/2000/svg" viewBox="0 0 26 26" enable-background="new 0 0 26 26">
    <path d="M 0 0 L 1.59375 8.1875 L 2.59375 13 L 6.6875 12.1875 L 6 11 L 5.90625 11 L 5.3125 10.59375 L 5.3125 10.40625 C 5.1125 9.80625 4.6 9.39375 4 9.59375 C 3.9 9.59375 3.9125 9.6875 3.8125 9.6875 L 3.1875 9.1875 L 2.09375 3.90625 L 0 0 z M 1.09375 0 L 5.90625 8.6875 L 8.3125 13 L 17.59375 7.90625 L 13.3125 0 L 11.8125 0 L 14.6875 5.40625 L 14.5 6.09375 C 14.4 6.09375 14.4125 6.0875 14.3125 6.1875 C 13.8125 6.4875 13.60625 7.09375 13.90625 7.59375 C 13.90625 7.69375 14 7.7125 14 7.8125 L 13.8125 8.5 L 10.8125 10.1875 L 10.09375 10 C 10.09375 9.9 10.1 9.9125 10 9.8125 C 9.7 9.2125 9.09375 9.0125 8.59375 9.3125 C 8.49375 9.3125 8.50625 9.40625 8.40625 9.40625 L 7.6875 9.1875 L 2.59375 0 L 1.09375 0 z M 6.6875 0 C 5.5875 0.9 5.39375 2.50625 6.09375 3.90625 C 6.99375 5.50625 8.69375 6.10625 10.09375 5.40625 C 11.49375 4.70625 11.9 2.7875 11 1.1875 C 10.8 0.6875 10.4 0.3 10 0 L 6.6875 0 z M 11.1875 6.09375 C 10.579987 6.09375 10.09375 6.5799868 10.09375 7.1875 C 10.09375 7.7950132 10.579987 8.3125 11.1875 8.3125 C 11.795013 8.3125 12.3125 7.7950132 12.3125 7.1875 C 12.3125 6.5799868 11.795013 6.09375 11.1875 6.09375 z M 19.34375 15.3125 C 18.399414 15.397461 17.71875 15.90625 16.90625 16.40625 C 16.40625 16.70625 14.59375 18 14.59375 18 C 14.59375 18 12.79375 19 11.09375 19 C 8.49375 19 8 19.1 8 20 C 8 20.9 9.6875 21 9.6875 21 L 14 21 C 15.4 21 17.5 20.1875 17.5 20.1875 C 17.5 20.1875 15.8 22 14 22 L 9.6875 22 C 8.7875 22 7 21.5 7 20 C 7 18 8.79375 17.99375 11.09375 18.09375 C 11.29375 18.09375 11.39375 18 11.59375 18 C 11.49375 17.9 11.4125 17.9125 11.3125 17.8125 C 10.9125 17.5125 10.2875 17.2125 9.6875 16.8125 C 8.0875 15.7125 7.20625 15.5875 6.40625 16.6875 C 5.80625 16.1875 5.1 16 4.5 16 C 3.8 16 3.3 16.4875 3.5 17.1875 C 1.7 16.1875 0.80625 16.59375 0.40625 17.09375 C -0.09375 17.79375 0.2125 18.4875 1.3125 19.1875 C 2.0125 19.7875 8.90625 24.30625 9.90625 24.90625 C 11.00625 25.50625 12.00625 26.50625 14.40625 25.40625 C 15.20625 25.00625 18.3125 23.40625 19.3125 22.90625 C 20.4125 22.40625 20.79375 22.5 21.59375 23 L 23.09375 24 L 25.90625 17.6875 C 25.90625 17.6875 22.80625 16.2875 21.40625 15.6875 C 20.58125 15.35 19.910352 15.261523 19.34375 15.3125 z"/>
</svg>
